# xmcd CD database file
#
# Track frame offsets:
#	150
#	40743
#	83696
#	129326
#	175633
#
# Disc length: 3053 seconds
#
# Revision: 0
# Processed by: cddbd v1.5.2PL0 Copyright (c) Steve Scherf et al.
# Submitted via: CDex 1.70beta3
#
DISCID=2e0beb05
DTITLE=Joe Morris - Mess Hall
DYEAR=2012
DGENRE=Jazz
TTITLE0=Dirt Reverence
TTITLE1=Magnet Move
TTITLE2=Response Arena
TTITLE3=Advanced Animal
TTITLE4=Hymn Zone
EXTD=YEAR: 2012
EXTT0=
EXTT1=
EXTT2=
EXTT3=
EXTT4=
PLAYORDER=
